<svg width="64" height="48" viewBox="0 0 64 48" fill="none" xmlns="http://www.w3.org/2000/svg">
<path fill-rule="evenodd" clip-rule="evenodd" d="M32 44C43.0457 44 52 35.0457 52 24C52 12.9543 43.0457 4 32 4C20.9543 4 12 12.9543 12 24C12 35.0457 20.9543 44 32 44ZM32 48C40.8834 48 48.6395 43.1736 52.7892 36H60H64V32V16V12H60H52.7892C48.6395 4.82638 40.8834 0 32 0C23.1166 0 15.3605 4.82638 11.2108 12H4H0V16V32V36H4H11.2108C15.3605 43.1736 23.1166 48 32 48ZM60 32H54.6344C55.5188 29.4978 56 26.8051 56 24C56 21.1949 55.5188 18.5022 54.6344 16H60V32ZM4 16H9.36565C8.48123 18.5022 8 21.1949 8 24C8 26.8051 8.48123 29.4978 9.36565 32H4L4 16ZM24 20V16H40V20H24ZM20 16C20 13.7909 21.7909 12 24 12H40C42.2091 12 44 13.7909 44 16V20C44 22.2091 42.2091 24 40 24H24C21.7909 24 20 22.2091 20 20V16ZM24 28H28V32H24V28ZM40 28H36V32H40V28Z" fill="#272F5A" fill-opacity="0.32"/>
</svg>
