<svg width="16" height="16" viewBox="0 0 16 16" fill="none" xmlns="http://www.w3.org/2000/svg">
<path d="M3.33332 8.36668C4.65103 7.26913 6.31173 6.6681 8.02666 6.6681C9.74159 6.6681 11.4023 7.26913 12.72 8.36668M0.946655 6.00001C2.89494 4.28266 5.40285 3.33511 7.99999 3.33511C10.5971 3.33511 13.105 4.28266 15.0533 6.00001M5.68666 10.74C6.36346 10.2592 7.1731 10.0009 8.00332 10.0009C8.83354 10.0009 9.64319 10.2592 10.32 10.74M7.99999 13.3333H8.00666" stroke="#272F5A" stroke-width="1.33333" stroke-linecap="round" stroke-linejoin="round"/>
<g clip-path="url(#clip0_4575_9393)">
<circle cx="12" cy="12" r="3" fill="white"/>
<path fill-rule="evenodd" clip-rule="evenodd" d="M12.005 15.34C13.8469 15.34 15.34 13.8469 15.34 12.005C15.34 10.1631 13.8469 8.67001 12.005 8.67001C10.1632 8.67001 8.67004 10.1631 8.67004 12.005C8.67004 13.8469 10.1632 15.34 12.005 15.34ZM14.2284 11.4492H9.78171V12.5608H14.2284V11.4492Z" fill="#FC525B"/>
</g>
<defs>
<clipPath id="clip0_4575_9393">
<rect width="8" height="8" fill="white" transform="translate(8 8)"/>
</clipPath>
</defs>
</svg>
