<svg width="16" height="16" viewBox="0 0 16 16" fill="none" xmlns="http://www.w3.org/2000/svg">
<path d="M3.33332 8.36668C4.65103 7.26913 6.31173 6.6681 8.02666 6.6681C9.74159 6.6681 11.4023 7.26913 12.72 8.36668M0.946655 6.00001C2.89494 4.28266 5.40285 3.33511 7.99999 3.33511C10.5971 3.33511 13.105 4.28266 15.0533 6.00001M5.68666 10.74C6.36346 10.2592 7.1731 10.0009 8.00332 10.0009C8.83354 10.0009 9.64319 10.2592 10.32 10.74M7.99999 13.3333H8.00666" stroke="#272F5A" stroke-width="1.33333" stroke-linecap="round" stroke-linejoin="round"/>
<g clip-path="url(#clip0_4575_9392)">
<circle cx="12" cy="12" r="3" fill="white"/>
<path d="M12 13.6667C12.0944 13.6667 12.1736 13.6347 12.2375 13.5708C12.3013 13.5069 12.3333 13.4278 12.3333 13.3333C12.3333 13.2389 12.3013 13.1597 12.2375 13.0958C12.1736 13.0319 12.0944 13 12 13C11.9055 13 11.8263 13.0319 11.7625 13.0958C11.6986 13.1597 11.6666 13.2389 11.6666 13.3333C11.6666 13.4278 11.6986 13.5069 11.7625 13.5708C11.8263 13.6347 11.9055 13.6667 12 13.6667ZM11.6666 12.3333H12.3333V10.3333H11.6666V12.3333ZM12 15.3333C11.5388 15.3333 11.1055 15.2458 10.7 15.0708C10.2944 14.8958 9.94163 14.6583 9.64163 14.3583C9.34163 14.0583 9.10413 13.7055 8.92913 13.3C8.75413 12.8944 8.66663 12.4611 8.66663 12C8.66663 11.5389 8.75413 11.1055 8.92913 10.7C9.10413 10.2944 9.34163 9.94166 9.64163 9.64166C9.94163 9.34166 10.2944 9.10416 10.7 8.92916C11.1055 8.75416 11.5388 8.66666 12 8.66666C12.4611 8.66666 12.8944 8.75416 13.3 8.92916C13.7055 9.10416 14.0583 9.34166 14.3583 9.64166C14.6583 9.94166 14.8958 10.2944 15.0708 10.7C15.2458 11.1055 15.3333 11.5389 15.3333 12C15.3333 12.4611 15.2458 12.8944 15.0708 13.3C14.8958 13.7055 14.6583 14.0583 14.3583 14.3583C14.0583 14.6583 13.7055 14.8958 13.3 15.0708C12.8944 15.2458 12.4611 15.3333 12 15.3333Z" fill="#FF8A1F"/>
</g>
<defs>
<clipPath id="clip0_4575_9392">
<rect width="8" height="8" fill="white" transform="translate(8 8)"/>
</clipPath>
</defs>
</svg>
