<svg width="100" height="100" viewBox="0 0 100 100" fill="none" xmlns="http://www.w3.org/2000/svg">
<mask id="mask0_33_452" style="mask-type:alpha" maskUnits="userSpaceOnUse" x="0" y="0" width="100" height="100">
<path d="M100 100H0V0H100V100Z" fill="#F3F5F6"/>
</mask>
<g mask="url(#mask0_33_452)">
<rect x="-1" y="-1" width="2" height="2" rx="1" fill="#DCDEE4"/>
<rect x="9" y="-1" width="2" height="2" rx="1" fill="#DCDEE4"/>
<rect x="-1" y="9" width="2" height="2" rx="1" fill="#DCDEE4"/>
<rect x="9" y="9" width="2" height="2" rx="1" fill="#DCDEE4"/>
<rect x="19" y="-1" width="2" height="2" rx="1" fill="#DCDEE4"/>
<rect x="29" y="-1" width="2" height="2" rx="1" fill="#DCDEE4"/>
<rect x="19" y="9" width="2" height="2" rx="1" fill="#DCDEE4"/>
<rect x="29" y="9" width="2" height="2" rx="1" fill="#DCDEE4"/>
<rect x="-1" y="19" width="2" height="2" rx="1" fill="#DCDEE4"/>
<rect x="9" y="19" width="2" height="2" rx="1" fill="#DCDEE4"/>
<rect x="-1" y="29" width="2" height="2" rx="1" fill="#DCDEE4"/>
<rect x="9" y="29" width="2" height="2" rx="1" fill="#DCDEE4"/>
<rect x="19" y="19" width="2" height="2" rx="1" fill="#DCDEE4"/>
<rect x="29" y="19" width="2" height="2" rx="1" fill="#DCDEE4"/>
<rect x="19" y="29" width="2" height="2" rx="1" fill="#DCDEE4"/>
<rect x="29" y="29" width="2" height="2" rx="1" fill="#DCDEE4"/>
<rect x="-1" y="39" width="2" height="2" rx="1" fill="#DCDEE4"/>
<rect x="9" y="39" width="2" height="2" rx="1" fill="#DCDEE4"/>
<rect x="-1" y="49" width="2" height="2" rx="1" fill="#DCDEE4"/>
<rect x="9" y="49" width="2" height="2" rx="1" fill="#DCDEE4"/>
<rect x="19" y="39" width="2" height="2" rx="1" fill="#DCDEE4"/>
<rect x="29" y="39" width="2" height="2" rx="1" fill="#DCDEE4"/>
<rect x="19" y="49" width="2" height="2" rx="1" fill="#DCDEE4"/>
<rect x="29" y="49" width="2" height="2" rx="1" fill="#DCDEE4"/>
<rect x="-1" y="59" width="2" height="2" rx="1" fill="#DCDEE4"/>
<rect x="9" y="59" width="2" height="2" rx="1" fill="#DCDEE4"/>
<rect x="-1" y="69" width="2" height="2" rx="1" fill="#DCDEE4"/>
<rect x="9" y="69" width="2" height="2" rx="1" fill="#DCDEE4"/>
<rect x="19" y="59" width="2" height="2" rx="1" fill="#DCDEE4"/>
<rect x="29" y="59" width="2" height="2" rx="1" fill="#DCDEE4"/>
<rect x="19" y="69" width="2" height="2" rx="1" fill="#DCDEE4"/>
<rect x="29" y="69" width="2" height="2" rx="1" fill="#DCDEE4"/>
<rect x="39" y="-1" width="2" height="2" rx="1" fill="#DCDEE4"/>
<rect x="49" y="-1" width="2" height="2" rx="1" fill="#DCDEE4"/>
<rect x="39" y="9" width="2" height="2" rx="1" fill="#DCDEE4"/>
<rect x="49" y="9" width="2" height="2" rx="1" fill="#DCDEE4"/>
<rect x="59" y="-1" width="2" height="2" rx="1" fill="#DCDEE4"/>
<rect x="69" y="-1" width="2" height="2" rx="1" fill="#DCDEE4"/>
<rect x="59" y="9" width="2" height="2" rx="1" fill="#DCDEE4"/>
<rect x="69" y="9" width="2" height="2" rx="1" fill="#DCDEE4"/>
<rect x="39" y="19" width="2" height="2" rx="1" fill="#DCDEE4"/>
<rect x="49" y="19" width="2" height="2" rx="1" fill="#DCDEE4"/>
<rect x="39" y="29" width="2" height="2" rx="1" fill="#DCDEE4"/>
<rect x="49" y="29" width="2" height="2" rx="1" fill="#DCDEE4"/>
<rect x="59" y="19" width="2" height="2" rx="1" fill="#DCDEE4"/>
<rect x="69" y="19" width="2" height="2" rx="1" fill="#DCDEE4"/>
<rect x="59" y="29" width="2" height="2" rx="1" fill="#DCDEE4"/>
<rect x="69" y="29" width="2" height="2" rx="1" fill="#DCDEE4"/>
<rect x="39" y="39" width="2" height="2" rx="1" fill="#DCDEE4"/>
<rect x="49" y="39" width="2" height="2" rx="1" fill="#DCDEE4"/>
<rect x="39" y="49" width="2" height="2" rx="1" fill="#DCDEE4"/>
<rect x="49" y="49" width="2" height="2" rx="1" fill="#DCDEE4"/>
<rect x="59" y="39" width="2" height="2" rx="1" fill="#DCDEE4"/>
<rect x="69" y="39" width="2" height="2" rx="1" fill="#DCDEE4"/>
<rect x="59" y="49" width="2" height="2" rx="1" fill="#DCDEE4"/>
<rect x="69" y="49" width="2" height="2" rx="1" fill="#DCDEE4"/>
<rect x="39" y="59" width="2" height="2" rx="1" fill="#DCDEE4"/>
<rect x="49" y="59" width="2" height="2" rx="1" fill="#DCDEE4"/>
<rect x="39" y="69" width="2" height="2" rx="1" fill="#DCDEE4"/>
<rect x="49" y="69" width="2" height="2" rx="1" fill="#DCDEE4"/>
<rect x="59" y="59" width="2" height="2" rx="1" fill="#DCDEE4"/>
<rect x="69" y="59" width="2" height="2" rx="1" fill="#DCDEE4"/>
<rect x="59" y="69" width="2" height="2" rx="1" fill="#DCDEE4"/>
<rect x="69" y="69" width="2" height="2" rx="1" fill="#DCDEE4"/>
<rect x="79" y="-1" width="2" height="2" rx="1" fill="#DCDEE4"/>
<rect x="89" y="-1" width="2" height="2" rx="1" fill="#DCDEE4"/>
<rect x="79" y="9" width="2" height="2" rx="1" fill="#DCDEE4"/>
<rect x="89" y="9" width="2" height="2" rx="1" fill="#DCDEE4"/>
<rect x="99" y="-1" width="2" height="2" rx="1" fill="#DCDEE4"/>
<rect x="99" y="9" width="2" height="2" rx="1" fill="#DCDEE4"/>
<rect x="79" y="19" width="2" height="2" rx="1" fill="#DCDEE4"/>
<rect x="89" y="19" width="2" height="2" rx="1" fill="#DCDEE4"/>
<rect x="79" y="29" width="2" height="2" rx="1" fill="#DCDEE4"/>
<rect x="89" y="29" width="2" height="2" rx="1" fill="#DCDEE4"/>
<rect x="99" y="19" width="2" height="2" rx="1" fill="#DCDEE4"/>
<rect x="99" y="29" width="2" height="2" rx="1" fill="#DCDEE4"/>
<rect x="79" y="39" width="2" height="2" rx="1" fill="#DCDEE4"/>
<rect x="89" y="39" width="2" height="2" rx="1" fill="#DCDEE4"/>
<rect x="79" y="49" width="2" height="2" rx="1" fill="#DCDEE4"/>
<rect x="89" y="49" width="2" height="2" rx="1" fill="#DCDEE4"/>
<rect x="99" y="39" width="2" height="2" rx="1" fill="#DCDEE4"/>
<rect x="99" y="49" width="2" height="2" rx="1" fill="#DCDEE4"/>
<rect x="79" y="59" width="2" height="2" rx="1" fill="#DCDEE4"/>
<rect x="89" y="59" width="2" height="2" rx="1" fill="#DCDEE4"/>
<rect x="79" y="69" width="2" height="2" rx="1" fill="#DCDEE4"/>
<rect x="89" y="69" width="2" height="2" rx="1" fill="#DCDEE4"/>
<rect x="99" y="59" width="2" height="2" rx="1" fill="#DCDEE4"/>
<rect x="99" y="69" width="2" height="2" rx="1" fill="#DCDEE4"/>
<rect x="-1" y="79" width="2" height="2" rx="1" fill="#DCDEE4"/>
<rect x="9" y="79" width="2" height="2" rx="1" fill="#DCDEE4"/>
<rect x="-1" y="89" width="2" height="2" rx="1" fill="#DCDEE4"/>
<rect x="9" y="89" width="2" height="2" rx="1" fill="#DCDEE4"/>
<rect x="19" y="79" width="2" height="2" rx="1" fill="#DCDEE4"/>
<rect x="29" y="79" width="2" height="2" rx="1" fill="#DCDEE4"/>
<rect x="19" y="89" width="2" height="2" rx="1" fill="#DCDEE4"/>
<rect x="29" y="89" width="2" height="2" rx="1" fill="#DCDEE4"/>
<rect x="-1" y="99" width="2" height="2" rx="1" fill="#DCDEE4"/>
<rect x="9" y="99" width="2" height="2" rx="1" fill="#DCDEE4"/>
<rect x="19" y="99" width="2" height="2" rx="1" fill="#DCDEE4"/>
<rect x="29" y="99" width="2" height="2" rx="1" fill="#DCDEE4"/>
<rect x="40" y="79" width="2" height="2" rx="1" fill="#DCDEE4"/>
<rect x="50" y="79" width="2" height="2" rx="1" fill="#DCDEE4"/>
<rect x="40" y="89" width="2" height="2" rx="1" fill="#DCDEE4"/>
<rect x="50" y="89" width="2" height="2" rx="1" fill="#DCDEE4"/>
<rect x="60" y="79" width="2" height="2" rx="1" fill="#DCDEE4"/>
<rect x="70" y="79" width="2" height="2" rx="1" fill="#DCDEE4"/>
<rect x="60" y="89" width="2" height="2" rx="1" fill="#DCDEE4"/>
<rect x="70" y="89" width="2" height="2" rx="1" fill="#DCDEE4"/>
<rect x="40" y="99" width="2" height="2" rx="1" fill="#DCDEE4"/>
<rect x="50" y="99" width="2" height="2" rx="1" fill="#DCDEE4"/>
<rect x="60" y="99" width="2" height="2" rx="1" fill="#DCDEE4"/>
<rect x="70" y="99" width="2" height="2" rx="1" fill="#DCDEE4"/>
<rect x="79" y="79" width="2" height="2" rx="1" fill="#DCDEE4"/>
<rect x="89" y="79" width="2" height="2" rx="1" fill="#DCDEE4"/>
<rect x="79" y="89" width="2" height="2" rx="1" fill="#DCDEE4"/>
<rect x="89" y="89" width="2" height="2" rx="1" fill="#DCDEE4"/>
<rect x="99" y="79" width="2" height="2" rx="1" fill="#DCDEE4"/>
<rect x="99" y="89" width="2" height="2" rx="1" fill="#DCDEE4"/>
<rect x="79" y="99" width="2" height="2" rx="1" fill="#DCDEE4"/>
<rect x="89" y="99" width="2" height="2" rx="1" fill="#DCDEE4"/>
<rect x="99" y="99" width="2" height="2" rx="1" fill="#DCDEE4"/>
</g>
</svg>
